# File created by Blade
# Date/Time:  Tue Jan 27 19:18:41 2015
# Frame Rate: 120.000 fps
#------------------------------------------------------
:FULLY-SPECIFIED
:DEGREES
2985
root 2.118635 32.260493 1.336509 -2.945757 -11.481968 -0.804622
Spine 1.590508 -11.378627 0.418293
Head 15.544919 3.387504 -7.127245
LeftShoulder -10.434267 -3.193866 24.767831
LeftArm -6.310977 39.313938 -103.927496
LeftForeArm 5.766494 -0.000000 16.817646
LeftHand 10.219127 0.000000 -3.723000
LeftHandThumb1 -26.253704 0.000000 33.147579
RightShoulder -25.698145 -14.576113 -43.191003
RightArm -35.396642 71.211274 9.202456
RightForeArm 0.970684 -0.000000 134.231865
RightHand 30.647236 -0.000000 -38.037740
RightHandThumb1 -24.326973 -0.000000 -32.862282
LeftUpLeg 13.631740 11.698676 4.823192
LeftLeg 0.797092 -0.000000 -0.000000
LeftFoot -18.467776 12.182908 -25.757104
LeftToeBase 16.734246 -0.000000 -0.000000
RightUpLeg 7.925759 2.475796 6.201873
RightLeg 1.715396 -0.000000 -0.000000
RightFoot -11.823847 -13.619346 11.982212
RightToeBase 12.014221 -0.000000 -0.000000
2986
root 2.120678 32.260775 1.337662 -2.927463 -11.467109 -0.809181
Spine 1.585225 -11.386860 0.412337
Head 15.574930 3.385984 -7.053699
LeftShoulder -10.432807 -3.154399 24.778132
LeftArm -6.314076 39.296718 -103.930543
LeftForeArm 5.786214 0.000000 16.816761
LeftHand 10.134232 -0.000000 -3.769137
LeftHandThumb1 -26.253704 0.000000 33.147579
RightShoulder -25.676088 -14.560475 -43.246951
RightArm -35.473557 71.059097 9.076143
RightForeArm 0.977813 -0.000000 132.402464
RightHand 30.503728 -0.000000 -37.951726
RightHandThumb1 -24.326973 -0.000000 -32.862282
LeftUpLeg 13.630415 11.738848 4.834446
LeftLeg 0.758257 -0.000000 -0.000000
LeftFoot -18.472171 12.049459 -26.018035
LeftToeBase 16.778410 -0.000000 -0.000000
RightUpLeg 7.908175 2.453163 6.199609
RightLeg 1.717713 -0.000000 -0.000000
RightFoot -11.805006 -13.618449 11.962024
RightToeBase 11.916550 -0.000000 -0.000000
2987
root 2.124062 32.261688 1.339510 -2.912138 -11.456197 -0.806071
Spine 1.584739 -11.383680 0.400361
Head 15.616242 3.340448 -7.014565
LeftShoulder -10.427267 -3.129099 24.783444
LeftArm -6.325636 39.302617 -103.942081
LeftForeArm 5.840528 -0.000000 16.802923
LeftHand 10.033901 0.000000 -3.557314
LeftHandThumb1 -26.253704 0.000000 33.147579
RightShoulder -25.671489 -14.534605 -43.302220
RightArm -35.451432 70.838850 9.021303
RightForeArm 0.883447 0.000000 130.458998
RightHand 30.488242 -0.000000 -37.686007
RightHandThumb1 -24.326973 -0.000000 -32.862282
LeftUpLeg 13.631428 11.744320 4.823445
LeftLeg 0.720046 -0.000000 -0.000000
LeftFoot -18.382392 12.136077 -25.716810
LeftToeBase 16.751443 -0.000000 -0.000000
RightUpLeg 7.890433 2.422806 6.185702
RightLeg 1.724870 -0.000000 -0.000000
RightFoot -11.799219 -13.589037 11.956595
RightToeBase 11.877996 -0.000000 -0.000000
2988
root 2.127800 32.263141 1.339911 -2.892131 -11.452896 -0.808643
Spine 1.583005 -11.396215 0.397108
Head 15.641309 3.336715 -6.975894
LeftShoulder -10.420588 -3.125564 24.782614
LeftArm -6.372740 39.302220 -103.956389
LeftForeArm 5.795159 -0.000000 16.804879
LeftHand 10.057369 -0.000000 -3.646278
LeftHandThumb1 -26.253704 0.000000 33.147579
RightShoulder -25.654248 -14.548814 -43.339709
RightArm -35.389568 70.707090 8.991098
RightForeArm 0.870525 0.000000 128.387499
RightHand 30.538609 -0.000000 -37.203976
RightHandThumb1 -24.326973 -0.000000 -32.862282
LeftUpLeg 13.626544 11.742409 4.813521
LeftLeg 0.692818 -0.000000 -0.000000
LeftFoot -18.373707 12.154633 -25.699750
LeftToeBase 16.788246 -0.000000 -0.000000
RightUpLeg 7.848163 2.350499 6.174799
RightLeg 1.764159 -0.000000 -0.000000
RightFoot -11.776953 -13.554456 11.901095
RightToeBase 11.908466 -0.000000 -0.000000
2989
root 2.130475 32.262871 1.343118 -2.883933 -11.446201 -0.805784
Spine 1.589565 -11.406989 0.383279
Head 15.652960 3.337716 -6.898401
LeftShoulder -10.412373 -3.152516 24.791925
LeftArm -6.461834 39.309254 -104.004649
LeftForeArm 5.796635 -0.000000 16.806606
LeftHand 10.096782 -0.000000 -3.688138
LeftHandThumb1 -26.253704 0.000000 33.147579
RightShoulder -25.640372 -14.485629 -43.446933
RightArm -35.209510 70.437835 9.068465
RightForeArm 0.884195 -0.000000 126.188356
RightHand 30.154495 -0.000000 -37.123167
RightHandThumb1 -24.326973 -0.000000 -32.862282
LeftUpLeg 13.634906 11.752970 4.812627
LeftLeg 0.657762 -0.000000 -0.000000
LeftFoot -18.422754 12.102346 -25.866812
LeftToeBase 17.059227 -0.000000 -0.000000
RightUpLeg 7.845486 2.344383 6.166466
RightLeg 1.762933 -0.000000 -0.000000
RightFoot -11.784080 -13.562466 11.889761
RightToeBase 11.826527 -0.000000 -0.000000
2990
root 2.133869 32.263162 1.346189 -2.871910 -11.446365 -0.809909
Spine 1.591041 -11.412833 0.378616
Head 15.678122 3.327466 -6.851342
LeftShoulder -10.398761 -3.151957 24.796746
LeftArm -6.506603 39.325808 -104.032409
LeftForeArm 5.804931 0.000000 16.787865
LeftHand 10.131301 -0.000000 -3.797717
LeftHandThumb1 -26.253704 0.000000 33.147579
RightShoulder -25.618828 -14.475395 -43.535648
RightArm -35.033569 70.205263 9.132921
RightForeArm 1.009497 -0.000000 123.882693
RightHand 29.862789 -0.000000 -36.427711
RightHandThumb1 -24.326973 -0.000000 -32.862282
LeftUpLeg 13.637606 11.765878 4.808791
LeftLeg 0.644050 -0.000000 -0.000000
LeftFoot -18.339214 12.139384 -25.692350
LeftToeBase 16.771036 -0.000000 -0.000000
RightUpLeg 7.843146 2.355446 6.164981
RightLeg 1.753668 -0.000000 -0.000000
RightFoot -11.790728 -13.570942 11.909459
RightToeBase 11.908892 -0.000000 -0.000000
2991
root 2.136530 32.263782 1.347171 -2.857285 -11.443207 -0.814228
Spine 1.589359 -11.437505 0.369736
Head 15.703327 3.334986 -6.790072
LeftShoulder -10.393475 -3.122085 24.797231
LeftArm -6.511103 39.356992 -104.032785
LeftForeArm 5.798844 -0.000000 16.758628
LeftHand 10.100224 -0.000000 -3.857983
LeftHandThumb1 -26.253704 0.000000 33.147579
RightShoulder -25.785043 -14.900349 -43.490739
RightArm -33.789239 70.304409 10.279671
RightForeArm 1.260000 -0.000000 121.466179
RightHand 29.495286 -0.000000 -35.779239
RightHandThumb1 -24.326973 -0.000000 -32.862282
LeftUpLeg 13.626543 11.761187 4.802973
LeftLeg 0.636887 -0.000000 -0.000000
LeftFoot -18.336574 12.142011 -25.681252
LeftToeBase 16.794427 -0.000000 -0.000000
RightUpLeg 7.828330 2.372143 6.166083
RightLeg 1.757889 -0.000000 -0.000000
RightFoot -11.787414 -13.588253 11.903681
RightToeBase 11.915958 -0.000000 -0.000000
2992
root 2.139009 32.263499 1.350309 -2.849118 -11.446233 -0.813215
Spine 1.597006 -11.464894 0.347692
Head 15.712773 3.335216 -6.721763
LeftShoulder -10.411130 -3.078889 24.813140
LeftArm -6.487445 39.394515 -104.047175
LeftForeArm 5.843708 -0.000000 16.670646
LeftHand 10.050035 0.000000 -3.754221
LeftHandThumb1 -26.253704 0.000000 33.147579
RightShoulder -25.787488 -14.977969 -43.540614
RightArm -33.397424 70.165606 10.491628
RightForeArm 2.076543 -0.000000 118.934057
RightHand 29.373179 -0.000000 -34.094154
RightHandThumb1 -24.326973 -0.000000 -32.862282
LeftUpLeg 13.627500 11.741275 4.793788
LeftLeg 0.630636 -0.000000 -0.000000
LeftFoot -18.414730 12.049676 -26.031517
LeftToeBase 16.822387 -0.000000 -0.000000
RightUpLeg 7.843941 2.453987 6.164211
RightLeg 1.722514 -0.000000 -0.000000
RightFoot -11.790367 -13.613605 11.972840
RightToeBase 11.942400 -0.000000 -0.000000
2993
root 2.141289 32.263503 1.354025 -2.841669 -11.460284 -0.818967
Spine 1.610922 -11.483834 0.336722
Head 15.703147 3.329987 -6.666178
LeftShoulder -10.415765 -3.084990 24.819714
LeftArm -6.542684 39.410913 -104.073675
LeftForeArm 5.865861 0.000000 16.646467
LeftHand 10.021349 0.000000 -3.829171
LeftHandThumb1 -26.253704 0.000000 33.147579
RightShoulder -25.747361 -15.031735 -43.601989
RightArm -33.137185 69.994758 10.543327
RightForeArm 2.782514 -0.000000 116.264448
RightHand 29.127573 -0.000000 -33.416008
RightHandThumb1 -24.326973 -0.000000 -32.862282
LeftUpLeg 13.635785 11.770970 4.796847
LeftLeg 0.621455 -0.000000 -0.000000
LeftFoot -18.350669 12.140464 -25.712295
LeftToeBase 16.752435 -0.000000 -0.000000
RightUpLeg 7.844494 2.486143 6.168609
RightLeg 1.720377 -0.000000 -0.000000
RightFoot -11.811134 -13.626510 12.012274
RightToeBase 11.988626 -0.000000 -0.000000
2994
root 2.143583 32.262899 1.357888 -2.838733 -11.473799 -0.824638
Spine 1.633144 -11.514286 0.323163
Head 15.679184 3.312247 -6.610411
LeftShoulder -10.439052 -3.073020 24.823333
LeftArm -6.580521 39.436054 -104.082830
LeftForeArm 5.890123 -0.000000 16.624658
LeftHand 10.015301 -0.000000 -3.776345
LeftHandThumb1 -26.253704 0.000000 33.147579
RightShoulder -25.687349 -14.986978 -43.717766
RightArm -32.745610 69.578545 10.713781
RightForeArm 3.641774 -0.000000 113.518555
RightHand 29.099658 -0.000000 -32.582201
RightHandThumb1 -24.326973 -0.000000 -32.862282
LeftUpLeg 13.645445 11.778345 4.798544
LeftLeg 0.617369 -0.000000 -0.000000
LeftFoot -18.353225 12.153430 -25.677426
LeftToeBase 16.766944 -0.000000 -0.000000
RightUpLeg 7.846183 2.499339 6.169901
RightLeg 1.724448 -0.000000 -0.000000
RightFoot -11.820781 -13.631375 12.014684
RightToeBase 11.969474 -0.000000 -0.000000
